<svg width="30" height="30" viewBox="0 0 30 30" fill="none" xmlns="http://www.w3.org/2000/svg">
<path d="M7 21.5696V24.5694M7.99987 13.57V8.57021C7.99987 8.03981 8.21056 7.53112 8.58559 7.15607C8.96061 6.78102 9.46926 6.57031 9.99962 6.57031H19.9984C20.5287 6.57031 21.0374 6.78102 21.4124 7.15607C21.7874 7.53112 21.9981 8.03981 21.9981 8.57021V13.57" stroke="#333131" stroke-width="1.2" stroke-linecap="round" stroke-linejoin="round"/>
<path d="M22.9977 21.5709H6.99975V18.521C6.53635 18.4264 6.10929 18.2023 5.76818 17.8747C5.42707 17.547 5.1859 17.1293 5.07268 16.6701C4.95946 16.2109 4.97884 15.7289 5.12857 15.2803C5.2783 14.8316 5.55223 14.4346 5.91855 14.1354C6.28487 13.8363 6.72854 13.6471 7.19804 13.5901C7.66754 13.533 8.1436 13.6103 8.57092 13.813C8.99825 14.0157 9.3593 14.3355 9.61215 14.7352C9.865 15.1349 9.99927 15.5982 9.99937 16.0712V17.5711H19.9981V16.0712C19.9981 15.4082 20.2615 14.7723 20.7303 14.3035C21.199 13.8347 21.8348 13.5713 22.4978 13.5713C23.1177 13.5707 23.7157 13.8004 24.1758 14.2159C24.6358 14.6315 24.925 15.2031 24.9873 15.8199C25.0496 16.4367 24.8805 17.0547 24.5129 17.5538C24.1452 18.053 23.6052 18.3977 22.9977 18.521V21.5709ZM22.9977 21.5709V24.5707" stroke="#333131" stroke-width="1.2" stroke-linecap="round" stroke-linejoin="round"/>
</svg>
