<svg width="30" height="30" viewBox="0 0 30 30" fill="none" xmlns="http://www.w3.org/2000/svg">
<path d="M10.3334 18.1455L8.00007 24.1457M19.6666 18.1455L21.9999 24.1457M15 14.7168C13.2243 14.7168 11.3484 14.9679 9.87605 15.3031C8.76773 15.5551 7.8764 16.7072 8.01407 17.6423C8.0654 17.9886 8.43056 18.1455 8.81439 18.1455H21.1856C21.5706 18.1455 21.9346 17.9886 21.9859 17.6423C22.1236 16.7072 21.2323 15.5551 20.124 15.3022C18.6528 14.9688 16.7756 14.7168 15 14.7168Z" stroke="#333131" stroke-width="1.2" stroke-linecap="round" stroke-linejoin="round"/>
<path d="M9.16699 14.7172L9.91365 9.23305C10.1131 7.76557 10.2135 7.03183 10.8796 6.58867C11.5458 6.14551 12.5503 6.14551 14.5569 6.14551H15.4436C17.4502 6.14551 18.4536 6.14551 19.1209 6.58867C19.7871 7.03183 19.8874 7.76557 20.0869 9.23305L20.8335 14.7172" stroke="#333131" stroke-width="1.2" stroke-linecap="round" stroke-linejoin="round"/>
</svg>
