<svg width="30" height="30" viewBox="0 0 30 30" fill="none" xmlns="http://www.w3.org/2000/svg">
<path d="M16.074 9.19727C16.8212 9.55024 18.2241 10.1052 18.6356 10.7857C19.3173 11.9129 18.6356 13.1683 17.3548 14.492C16.074 15.8156 12.4605 19.4061 14.3817 20.9945C16.3029 22.5829 17.9952 21.375 18.9558 20.3161C19.9164 19.2572 21.1973 16.8746 23.1185 17.1393C24.6554 17.3511 25.6801 18.11 26.0003 18.463" stroke="#333131" stroke-width="0.8"/>
<path d="M16.6146 11.2464C12.6284 16.0229 4.92791 25.1454 4.38436 25.1453C4.11258 25.1453 3.84079 24.9249 4.11258 24.484C4.38436 24.0431 14.6668 8.79311 16.071 7.71904C16.7738 7.18149 19.3324 7.49858 18.2452 9.48269" stroke="#333131" stroke-width="1.2"/>
</svg>
