<svg width="30" height="30" viewBox="0 0 30 30" fill="none" xmlns="http://www.w3.org/2000/svg">
<path d="M2 20.9792V24.5703M15 17.388V8.9644M15 8.9644C15 8.32945 15.2739 7.7205 15.7615 7.27152C16.2491 6.82255 16.9104 6.57031 17.6 6.57031H22.8C23.4896 6.57031 24.1509 6.82255 24.6385 7.27152C25.1261 7.7205 25.4 8.32945 25.4 8.9644V12.5999M15 8.9644C15 8.32945 14.7261 7.7205 14.2385 7.27152C13.7509 6.82255 13.0896 6.57031 12.4 6.57031H7.2C6.51044 6.57031 5.84912 6.82255 5.36152 7.27152C4.87393 7.7205 4.6 8.32945 4.6 8.9644V12.5999" stroke="#333131" stroke-width="1.2" stroke-linecap="round" stroke-linejoin="round"/>
<path d="M28 20.9789V24.5701M25.4 12.5996C24.7104 12.5996 24.0491 12.8518 23.5615 13.3008C23.0739 13.7498 22.8 14.3587 22.8 14.9937V17.3878H7.2V14.9937C7.2 14.3587 6.92607 13.7498 6.43848 13.3008C5.95088 12.8518 5.28956 12.5996 4.6 12.5996C3.91044 12.5996 3.24912 12.8518 2.76152 13.3008C2.27393 13.7498 2 14.3587 2 14.9937V22.176H28V14.9937C28 14.3587 27.7261 13.7498 27.2385 13.3008C26.7509 12.8518 26.0896 12.5996 25.4 12.5996Z" stroke="#333131" stroke-width="1.2" stroke-linecap="round" stroke-linejoin="round"/>
</svg>
